# xmcd
#
# Track frame offsets: 
#        150
#        11477
#        23727
#        34927
#        47030
#        59467
#        72180
#        85880
#        98395
#        111202
#        125032
#        137212
#        150735
#        164127
#        177907
#        190952
#        203755
#        215865
#        229530
#        243020
#        255765
#        269115
#        284180
#
# Disc length: 3995 seconds
#
# Revision: 0
# Processed by: cddbd v1.5.2PL0 Copyright (c) Steve Scherf et al.
# Submitted via: ExactAudioCopyFreeDBPlugin 1.0
#
DISCID=520f9917
DTITLE=Roosevelt Sykes - Complete Recordings Vol. 7 (1941-1944)
DYEAR=1992
DGENRE=Blues
TTITLE0=K. M. A. Blues
TTITLE1=Trouble and Whiskey
TTITLE2=My Supply Woman Blues
TTITLE3=Prison Gate Blues
TTITLE4=Sykes Advice Blues
TTITLE5=Low as a Toad
TTITLE6=Let the Black Have His Way
TTITLE7=15c a Day
TTITLE8=Just Hanging Around
TTITLE9=Keep Your Hands off Her
TTITLE10=Roll On Blues
TTITLE11=Skin and Bones Blues
TTITLE12=Third Degree Blues
TTITLE13=Pay Day Blues
TTITLE14=Training Camp Blues
TTITLE15=Sugar Babe Blues
TTITLE16=Are You Unhappy?
TTITLE17=You Can't Do That to Me
TTITLE18=Love Has Something to Say
TTITLE19=Honeysuckle Rose
TTITLE20=Mellow Queen
TTITLE21=Jivin' the Jive
TTITLE22=I Wonder
EXTD=
EXTT0=
EXTT1=
EXTT2=
EXTT3=
EXTT4=
EXTT5=
EXTT6=
EXTT7=
EXTT8=
EXTT9=
EXTT10=
EXTT11=
EXTT12=
EXTT13=
EXTT14=
EXTT15=
EXTT16=
EXTT17=
EXTT18=
EXTT19=
EXTT20=
EXTT21=
EXTT22=
PLAYORDER=
